<svg width="65" height="50" viewBox="0 0 65 50" fill="none" xmlns="http://www.w3.org/2000/svg">
<path d="M19.3688 5.20839C20.4842 3.5551 22.3483 2.56412 24.3426 2.56412H36.8946C41.7018 2.56412 44.5571 7.9348 41.8685 11.9198L30.0938 29.3723C28.9783 31.0256 27.1143 32.0166 25.1199 32.0166H12.5679C7.76074 32.0166 4.9055 26.6459 7.5941 22.6608L19.3688 5.20839Z" fill="#111111"/>
<path d="M25.3688 34.7462C23.4729 34.7462 21.7008 35.6882 20.6405 37.2599C18.0846 41.0483 20.7989 46.1539 25.3688 46.1539H39.7599C41.7543 46.1539 43.6184 45.1629 44.7338 43.5096L56.5085 26.0571C59.1971 22.0721 56.3418 16.7014 51.5346 16.7014H45.116C43.1216 16.7014 41.2576 17.6924 40.1421 19.3457L31.5358 32.1019C30.4204 33.7552 28.5564 34.7462 26.562 34.7462H25.3688Z" fill="#111111"/>
</svg>
