<svg width="50" height="39" viewBox="0 0 50 39" fill="none" xmlns="http://www.w3.org/2000/svg">
<path d="M14.7152 4.64428C15.8306 2.99098 17.6946 2 19.689 2H26.2949C31.1021 2 33.9573 7.37068 31.2687 11.3557L23.8656 22.3286C22.7502 23.9819 20.8862 24.9729 18.8918 24.9729H12.2859C7.47871 24.9729 4.62345 19.6022 7.31205 15.6172L14.7152 4.64428Z" fill="#DAFF00"/>
<path d="M19.7877 27.102C18.3088 27.102 16.9266 27.8368 16.0995 29.0627C14.106 32.0177 16.2231 36 19.7877 36H30.311C32.3054 36 34.1694 35.009 35.2848 33.3557L42.6879 22.3828C45.3765 18.3978 42.5213 13.0271 37.7141 13.0271H35.8922C33.8978 13.0271 32.0338 14.0181 30.9184 15.6714L24.8238 24.7046C23.8126 26.2035 22.1226 27.102 20.3144 27.102H19.7877Z" fill="#DAFF00"/>
</svg>
